<?xml version="1.0" standalone="no"?>
<!DOCTYPE svg PUBLIC "-//W3C//DTD SVG 20010904//EN"
 "http://www.w3.org/TR/2001/REC-SVG-20010904/DTD/svg10.dtd">
<svg version="1.0" xmlns="http://www.w3.org/2000/svg"
 width="1080.000000pt" height="1350.000000pt" viewBox="0 0 1080.000000 1350.000000"
 preserveAspectRatio="xMidYMid meet">

<g transform="translate(0.000000,1350.000000) scale(0.100000,-0.100000)"
fill="#000000" stroke="none">
<path d="M0 6750 l0 -6750 2278 0 c2001 0 2280 2 2306 15 32 17 33 17 201 47
99 17 130 19 175 10 105 -20 135 -29 177 -50 42 -22 43 -22 772 -22 l730 0 -6
97 c-9 154 -23 172 -97 128 -35 -20 -55 -25 -93 -23 l-48 3 -3 54 c-4 63 39
254 71 319 27 54 120 129 213 172 38 17 77 35 87 41 10 6 53 9 95 9 43 -1 84
1 92 4 12 5 102 2 120 -4 3 -1 -4 -5 -15 -10 -17 -7 -14 -9 13 -9 20 -1 31 3
27 9 -8 14 8 13 42 -2 35 -16 63 -44 63 -63 0 -8 6 -15 13 -15 8 0 7 -4 -3
-10 -12 -8 -11 -10 7 -10 12 0 25 5 28 10 12 19 38 11 32 -10 -3 -11 -2 -20 3
-20 4 0 10 9 13 20 3 11 12 20 20 20 25 0 -4 -48 -35 -59 -16 -6 -28 -15 -28
-21 0 -7 -8 -9 -22 -4 -13 3 -20 3 -15 -1 4 -5 0 -16 -9 -26 -9 -10 -16 -34
-15 -56 4 -295 5 -306 32 -353 20 -35 24 -53 19 -81 -3 -20 -4 -52 -2 -72 l4
-37 1779 0 1779 0 0 6750 0 6750 -5400 0 -5400 0 0 -6750z m5455 4492 c14 -17
42 -32 71 -40 27 -7 56 -19 64 -26 23 -20 150 -48 206 -45 27 1 66 -1 87 -5
29 -7 37 -5 37 6 0 8 -5 19 -10 24 -7 7 -2 15 15 24 22 12 27 11 39 -5 10 -14
22 -17 54 -12 23 3 42 1 42 -4 0 -5 13 -6 30 -3 38 8 110 -25 134 -60 9 -14
21 -26 27 -26 12 0 81 -31 89 -39 3 -4 20 -17 39 -30 32 -22 35 -23 47 -7 11
15 16 16 46 3 18 -8 39 -21 47 -30 7 -10 23 -17 35 -17 24 0 119 -44 111 -51
-3 -3 7 -12 22 -20 33 -17 102 -89 103 -106 0 -7 9 -13 21 -13 11 0 17 -4 14
-10 -3 -5 2 -10 12 -10 10 0 29 -14 43 -31 37 -47 55 -63 137 -121 45 -33 76
-62 80 -77 3 -13 14 -32 24 -42 15 -15 16 -22 6 -43 -8 -17 -17 -24 -27 -20
-48 20 -82 25 -95 14 -8 -6 -28 -9 -47 -5 -69 13 -238 12 -256 -1 -20 -16
-159 -19 -182 -4 -9 6 -17 5 -21 -2 -5 -8 -23 -8 -65 0 -31 7 -78 12 -103 13
-35 0 -41 2 -26 9 15 6 9 9 -25 9 -34 0 -40 -2 -25 -9 14 -6 -4 -9 -54 -8 -44
0 -68 4 -60 9 9 5 -11 9 -51 9 -63 0 -173 -19 -235 -42 -16 -6 -45 -15 -62
-22 -18 -6 -33 -14 -33 -18 0 -10 -72 -40 -79 -33 -3 4 1 10 9 15 13 8 12 10
-3 10 -10 0 -20 7 -23 15 -8 21 -21 19 -34 -6 -9 -15 -8 -24 1 -35 6 -8 8 -14
3 -14 -5 0 -2 -5 6 -10 11 -7 7 -10 -17 -10 -18 0 -33 5 -33 10 0 12 -77 13
-84 1 -3 -5 1 -14 9 -21 16 -13 21 -35 6 -26 -4 3 -16 -3 -25 -13 -14 -15 -15
-24 -7 -40 18 -33 13 -66 -15 -92 -53 -50 -65 -81 -58 -153 5 -51 2 -72 -9
-90 -9 -12 -20 -41 -26 -64 -9 -33 -15 -40 -29 -35 -15 6 -15 5 -3 -10 9 -11
10 -17 2 -17 -6 0 -11 -11 -11 -24 0 -14 -4 -28 -10 -31 -15 -9 -12 -48 5 -81
13 -25 13 -30 0 -40 -46 -34 -39 -159 13 -219 18 -19 32 -47 32 -60 0 -14 5
-25 10 -25 6 0 10 -6 10 -14 0 -8 8 -21 19 -28 10 -7 28 -32 39 -54 17 -34 28
-43 57 -48 19 -4 35 -12 35 -17 0 -18 94 -98 116 -99 22 0 57 -33 67 -62 4
-10 13 -18 21 -18 8 0 29 -18 47 -40 32 -40 32 -40 47 -18 14 19 16 20 28 4 7
-10 21 -16 31 -14 11 2 22 -5 29 -17 5 -11 17 -19 26 -17 9 1 19 -2 23 -8 8
-13 35 13 35 34 0 20 17 20 37 1 8 -8 19 -13 24 -10 5 4 9 -1 9 -9 0 -8 10
-18 23 -22 12 -4 24 -10 27 -15 3 -5 19 -5 35 0 21 5 37 3 54 -8 22 -14 174
-33 264 -32 24 0 40 -5 43 -14 4 -8 12 -15 20 -15 8 0 14 -4 14 -10 0 -21 39
-10 42 12 5 39 88 36 88 -3 0 -17 4 -19 23 -13 12 4 31 17 43 29 13 14 43 28
78 35 31 6 54 15 51 20 -9 15 27 19 163 18 74 -1 137 3 140 8 10 13 71 34 85
29 7 -3 32 26 56 63 42 63 44 71 47 147 1 44 3 83 3 87 1 4 7 5 15 2 14 -5 26
23 26 64 0 12 5 22 10 22 6 0 10 7 10 15 0 8 -7 15 -15 15 -17 0 -20 16 -5 25
6 3 10 17 10 31 0 21 4 24 40 24 22 0 40 5 40 10 0 6 18 10 40 10 40 0 53 13
24 24 -9 3 -25 6 -36 6 -11 0 -22 8 -25 20 -3 11 -12 20 -19 20 -8 0 -14 7
-14 16 0 11 6 15 20 11 27 -7 58 33 35 46 -8 4 -15 18 -15 30 0 14 -3 18 -8
10 -4 -7 -8 12 -8 42 0 29 4 51 9 48 10 -6 67 16 65 26 0 3 0 20 1 36 1 25 3
27 12 13 12 -21 35 -24 42 -5 3 9 7 9 19 -1 13 -10 17 -10 21 0 2 7 8 10 12 5
5 -4 3 -13 -3 -19 -17 -17 -15 -28 6 -28 12 0 21 -11 27 -32 7 -22 16 -33 28
-32 12 1 17 -6 17 -27 0 -26 -2 -28 -19 -19 -24 12 -27 8 -36 -54 -7 -42 -6
-48 8 -43 18 7 29 -15 20 -39 -5 -13 -2 -15 15 -10 33 11 47 -3 23 -21 -13 -8
-18 -19 -14 -26 7 -11 9 -16 12 -35 2 -13 51 -33 62 -27 5 4 9 -7 9 -24 0 -21
6 -32 21 -36 15 -5 17 -10 9 -20 -8 -9 -8 -15 0 -20 15 -9 2 -25 -20 -25 -10
0 -21 -8 -25 -17 -11 -26 -13 -133 -3 -133 4 0 8 -7 8 -15 0 -8 5 -15 10 -15
6 0 10 -4 10 -10 0 -5 -9 -10 -20 -10 -11 0 -20 -7 -20 -15 0 -8 -4 -15 -8
-15 -19 0 -32 -55 -31 -123 1 -52 -5 -88 -21 -131 -18 -46 -21 -70 -16 -115 8
-64 8 -80 3 -121 -2 -16 -4 -79 -5 -140 -2 -86 -5 -110 -16 -110 -17 0 -47
-44 -43 -62 2 -7 2 -10 0 -5 -19 32 -52 -30 -38 -72 8 -27 -15 -38 -32 -16
-11 16 -13 4 -13 -91 0 -116 6 -139 33 -128 13 5 16 2 11 -10 -3 -9 -10 -16
-14 -16 -4 0 -10 -13 -12 -30 -3 -16 -2 -30 1 -30 4 0 3 -37 -1 -82 -4 -46
-10 -122 -14 -170 -6 -77 -10 -90 -30 -103 -26 -17 -30 -48 -14 -103 7 -27 6
-33 -4 -29 -9 4 -13 -4 -13 -21 -1 -40 -19 -92 -37 -104 -5 -4 -9 -24 -8 -45
2 -26 -3 -45 -15 -58 -10 -11 -19 -34 -20 -51 -1 -17 -15 -55 -32 -85 -16 -30
-31 -68 -34 -86 -9 -55 -31 -72 -41 -30 -2 12 -4 1 -3 -25 1 -27 -1 -48 -5
-48 -5 0 -8 -7 -8 -16 0 -9 -9 -18 -20 -21 -16 -4 -20 -14 -20 -46 0 -41 -22
-77 -47 -77 -7 0 -13 -8 -13 -17 0 -10 -7 -30 -14 -45 -8 -16 -11 -28 -5 -28
5 0 9 -9 9 -20 0 -11 -7 -20 -15 -20 -8 0 -15 -7 -15 -15 0 -8 -6 -13 -12 -11
-7 3 -25 7 -40 10 -41 9 -34 22 15 31 l42 8 -38 9 c-35 9 -40 8 -62 -18 -14
-16 -25 -32 -25 -36 0 -5 -6 -8 -14 -8 -8 0 -17 -6 -19 -12 -3 -7 -6 -2 -6 11
-1 17 -5 22 -17 17 -9 -3 -28 -6 -42 -6 -16 0 -22 -3 -15 -8 16 -10 20 -91 5
-101 -7 -4 -13 -24 -14 -44 -1 -36 -2 -37 -41 -37 -30 0 -38 3 -34 15 4 8 2
17 -4 21 -6 3 -8 12 -5 20 6 17 1 17 -25 4 -11 -6 -19 -21 -19 -36 0 -13 -7
-27 -15 -30 -20 -8 -19 -24 0 -24 19 0 40 -43 31 -65 -5 -15 -8 -15 -35 1 -28
16 -31 16 -55 0 -14 -9 -26 -23 -26 -31 0 -8 -9 -15 -20 -15 -17 0 -20 -7 -20
-49 0 -40 -4 -53 -22 -66 -15 -10 -24 -11 -26 -5 -3 7 -10 6 -21 -3 -17 -16
-37 -20 -83 -18 -21 1 -28 6 -28 20 0 11 5 23 10 26 6 4 8 11 4 16 -3 5 4 17
16 27 20 16 20 19 6 53 -14 34 -14 38 3 58 10 11 21 18 24 15 3 -3 13 -2 22 4
14 7 12 10 -14 15 -35 7 -46 25 -37 62 4 16 13 25 26 25 17 0 20 7 20 52 0 39
6 59 24 83 17 22 26 51 31 98 6 57 10 67 27 67 18 0 18 2 4 22 -9 12 -16 37
-16 55 0 17 -5 35 -10 38 -18 11 -40 -15 -34 -39 5 -21 2 -22 -38 -20 -24 1
-44 3 -45 4 -2 2 -7 3 -12 4 -19 2 -21 14 -12 55 9 41 9 41 -20 41 -16 0 -29
5 -29 10 0 6 -11 15 -25 20 -28 11 -33 41 -11 59 14 12 73 10 94 -3 13 -8 23
6 29 45 6 37 -13 65 -33 48 -8 -6 -14 -17 -14 -24 0 -7 -7 -18 -15 -25 -12
-10 -15 -10 -16 1 -1 8 -3 21 -4 29 -1 8 -3 25 -4 38 -1 25 -31 31 -31 6 0
-12 -54 -44 -76 -44 -4 0 -4 18 0 40 l6 40 -57 0 c-66 0 -98 13 -73 30 11 7
11 10 2 10 -7 0 -11 4 -8 9 3 4 23 4 45 -2 22 -6 44 -8 47 -4 12 11 2 15 -56
18 -42 3 -55 1 -55 -10 0 -8 -6 -16 -12 -18 -7 -3 -13 3 -13 12 0 12 -8 16
-32 13 -25 -2 -33 -9 -40 -33 -5 -16 -7 -45 -4 -63 4 -26 2 -33 -9 -28 -9 3
-18 -7 -27 -30 -10 -29 -14 -32 -19 -17 -4 10 -8 29 -9 43 0 14 -18 44 -39 68
-32 36 -40 40 -45 26 -5 -13 -15 -15 -47 -11 -55 7 -69 0 -69 -34 0 -35 -13
-38 -26 -6 -13 29 -3 89 15 95 10 4 12 -2 8 -24 -3 -16 -4 -24 -1 -17 3 7 11
10 19 7 10 -4 12 0 8 15 -3 11 -13 23 -23 26 -24 7 -33 34 -19 51 6 8 8 21 5
30 -6 16 -18 16 -58 -1 -12 -5 -18 -3 -18 6 0 8 -6 26 -14 41 -22 41 -28 82
-17 111 6 15 16 25 23 22 22 -8 34 8 52 70 10 33 27 76 38 95 20 34 24 46 35
107 l5 31 -58 5 c-33 3 -92 12 -132 21 -40 9 -76 15 -80 15 -23 -4 -42 2 -37
11 3 6 -5 10 -18 10 -26 0 -97 68 -97 93 0 8 -11 19 -24 27 -38 20 -105 -13
-197 -97 -73 -66 -82 -71 -114 -66 -19 3 -42 2 -52 -2 -56 -24 -106 -12 -119
27 -7 23 -61 77 -78 78 -16 0 -56 43 -56 59 0 14 -2 14 -11 1 -9 -12 -10 -11
-6 7 4 17 -3 25 -34 39 -32 14 -39 22 -39 44 0 24 -5 29 -35 34 -32 6 -35 10
-35 41 0 37 -25 69 -47 61 -8 -3 -30 1 -50 9 -19 8 -43 15 -53 15 -10 0 -21 7
-24 16 -9 25 -7 114 3 114 5 0 15 17 21 38 7 20 24 49 37 64 14 14 22 31 18
37 -3 6 3 23 14 37 12 15 21 35 21 44 0 10 7 20 15 24 9 3 15 18 15 36 0 16 8
39 18 50 9 11 19 30 22 43 4 12 15 23 27 25 29 4 36 39 27 146 -4 50 -8 98 -9
106 0 8 8 24 18 36 14 17 18 43 21 130 4 109 10 144 27 144 5 0 9 7 9 15 0 9
7 18 15 21 8 3 15 16 14 27 0 19 9 133 13 177 1 8 -1 31 -6 52 -6 25 -3 46 7
70 9 18 24 57 34 86 10 28 21 52 25 52 5 0 8 9 8 21 0 12 8 23 20 26 25 7 25
8 -1 44 -11 16 -17 33 -14 39 3 5 1 10 -5 10 -8 0 -10 9 -6 25 4 15 -1 39 -15
65 -12 22 -19 47 -16 54 3 8 3 16 -1 18 -4 2 -15 21 -23 43 -14 36 -14 44 -2
62 11 16 12 27 4 42 -6 11 -11 37 -11 59 0 21 -7 53 -16 70 -8 18 -13 36 -10
41 3 5 -5 12 -18 15 -46 11 -45 153 0 183 26 17 32 43 10 43 -9 0 -17 15 -21
40 -4 24 -12 40 -21 40 -19 0 -54 31 -54 48 0 7 -7 26 -14 41 -13 25 -13 31 0
50 8 11 13 21 10 21 -3 0 2 8 12 18 11 11 27 16 46 13 24 -3 28 -1 23 13 -5
11 -1 16 13 16 11 0 20 -7 20 -15 0 -8 4 -15 9 -15 19 0 41 32 41 61 0 45 36
55 72 21 15 -14 26 -28 23 -30 -8 -9 69 -51 93 -52 24 0 30 17 8 26 -11 4 -14
34 -8 67 3 10 54 9 72 -2 23 -15 31 -2 15 23 -9 13 -13 31 -9 40 4 10 -1 24
-10 35 -15 16 -14 18 6 29 37 18 131 31 150 21 25 -13 23 3 -2 19 -11 7 -30
10 -43 7 -14 -4 -40 4 -70 20 -40 23 -47 31 -44 53 3 20 11 28 38 35 19 5 40
13 47 19 14 12 17 32 2 23 -14 -9 -50 13 -50 30 0 17 37 38 55 32 7 -3 21 0
31 7 11 8 33 17 51 20 17 4 37 14 44 22 7 9 30 14 61 14 42 0 53 -4 73 -28z
m-1990 -22 c3 -5 -1 -10 -9 -10 -9 0 -16 5 -16 10 0 6 4 10 9 10 6 0 13 -4 16
-10z m161 -47 c8 -3 25 3 37 14 12 11 30 23 41 27 16 6 18 2 11 -31 -9 -51
-21 -63 -61 -63 -18 0 -36 -4 -39 -10 -3 -5 3 -10 14 -10 19 0 21 -6 21 -57 0
-67 14 -99 31 -70 5 9 21 17 34 17 17 0 25 6 27 23 3 19 8 22 38 19 19 -1 49
-2 65 -2 17 0 37 -5 45 -10 13 -8 13 -13 2 -31 -12 -18 -11 -24 7 -43 12 -12
21 -27 21 -33 0 -6 11 -20 24 -30 20 -15 26 -30 31 -85 7 -61 5 -68 -11 -73
-11 -3 -32 -13 -49 -22 -43 -22 -84 -33 -90 -23 -3 5 1 11 7 13 8 4 7 6 -4 6
-9 1 -18 6 -20 12 -2 6 -25 11 -52 11 -35 0 -46 3 -42 13 6 16 -39 26 -53 12
-6 -6 -11 -8 -11 -4 0 4 -13 1 -30 -8 -16 -8 -45 -15 -65 -15 -21 0 -35 -5
-36 -12 0 -7 -5 -1 -10 13 -9 25 -11 26 -102 23 -50 -1 -97 2 -103 7 -6 5 -36
11 -66 15 -47 6 -62 3 -91 -15 -48 -30 -83 -27 -102 7 -9 15 -14 20 -11 11 3
-13 0 -15 -15 -12 -21 6 -36 23 -21 23 6 0 12 10 16 23 10 38 51 77 81 77 23
0 25 2 15 14 -8 11 -9 20 -1 33 10 17 10 17 11 0 0 -10 6 -17 13 -15 7 3 13
26 15 53 2 31 9 53 20 62 25 18 32 16 32 -12 0 -27 17 -34 26 -10 4 10 20 15
45 15 39 0 39 0 39 40 0 36 -2 40 -25 40 -34 0 -31 19 5 33 17 6 33 19 36 29
3 10 12 18 20 18 8 0 14 5 14 11 0 6 18 10 43 8 23 -1 54 2 70 6 15 4 51 10
80 14 49 6 52 5 55 -17 2 -13 10 -26 18 -29z m-429 -65 c-3 -8 -6 -5 -6 6 -1
11 2 17 5 13 3 -3 4 -12 1 -19z m1566 -65 c-7 -2 -21 -2 -30 0 -10 3 -4 5 12
5 17 0 24 -2 18 -5z m357 -53 c12 -8 12 -10 -3 -16 -22 -8 -50 3 -42 16 8 12
25 13 45 0z m-307 -71 c18 -12 -2 -39 -28 -39 -16 0 -25 -6 -25 -15 0 -28 -37
-17 -43 12 -7 37 0 46 30 40 17 -3 28 1 36 14 8 13 13 15 16 7 2 -7 8 -16 14
-19z m-1903 -9 c12 -8 11 -10 -7 -10 -13 0 -23 5 -23 10 0 13 11 13 30 0z m96
-35 c18 -14 18 -14 0 -15 -10 0 -25 -8 -32 -17 -12 -16 -13 -15 -14 15 0 35
14 41 46 17z m1634 -325 c0 -5 -7 -10 -15 -10 -8 0 -15 5 -15 10 0 6 7 10 15
10 8 0 15 -4 15 -10z m65 -62 c2 -7 6 -34 10 -60 5 -38 3 -48 -8 -48 -14 0
-27 46 -27 98 0 23 18 31 25 10z m2638 -205 c-7 -2 -19 -2 -25 0 -7 3 -2 5 12
5 14 0 19 -2 13 -5z m-1700 -10 c-7 -2 -21 -2 -30 0 -10 3 -4 5 12 5 17 0 24
-2 18 -5z m1727 -27 c0 -2 -9 -2 -20 1 -11 3 -20 9 -20 15 0 5 9 4 20 -2 11
-6 20 -12 20 -14z m-1878 -208 c-6 -6 -15 -9 -18 -5 -4 3 -4 14 0 23 5 13 9
15 18 6 9 -9 9 -15 0 -24z m1225 -200 c-3 -8 -6 -5 -6 6 -1 11 2 17 5 13 3 -3
4 -12 1 -19z m173 12 c18 -12 2 -12 -25 0 -13 6 -15 9 -5 9 8 0 22 -4 30 -9z
m715 -6 c20 -8 35 -18 31 -21 -3 -3 -1 -14 5 -25 12 -23 6 -34 -13 -22 -7 5
-24 9 -38 9 -21 0 -24 5 -25 38 -1 20 -1 37 0 37 2 0 19 -7 40 -16z m-1010 -4
c8 -13 -5 -13 -25 0 -13 8 -13 10 2 10 9 0 20 -4 23 -10z m0 -36 c5 -8 21 -14
35 -14 51 -1 149 8 159 15 7 4 11 -4 11 -18 0 -15 -8 -28 -22 -35 -22 -10 -21
-11 9 -11 17 -1 34 -5 38 -11 3 -5 12 -7 20 -3 9 3 15 -1 15 -11 0 -10 -9 -16
-22 -17 -14 0 -17 -2 -8 -6 8 -2 25 -9 37 -15 19 -9 20 -13 7 -25 -11 -11 -25
-13 -57 -7 -23 5 -49 8 -57 7 -8 -1 -33 3 -55 9 -22 6 -44 12 -50 13 -56 8
-95 19 -95 26 0 5 -33 9 -73 9 -58 0 -79 4 -96 19 -19 16 -19 20 -6 31 11 9
12 16 5 25 -8 10 -4 15 17 20 16 5 34 7 41 6 6 -1 12 2 12 7 0 14 124 1 135
-14z m-2964 -28 c29 -12 31 -16 15 -22 -16 -6 -16 -8 -2 -16 13 -7 13 -12 4
-27 -10 -17 -14 -18 -33 -5 -12 8 -24 11 -28 8 -11 -12 -58 26 -55 44 2 9 17
20 33 23 17 4 31 7 31 8 1 0 17 -5 35 -13z m2879 -115 c0 -5 21 -12 48 -15 92
-13 112 -18 106 -27 -3 -5 3 -9 14 -9 15 0 19 -7 18 -37 -2 -38 -22 -57 -31
-29 -17 53 -14 50 -33 32 -10 -9 -24 -16 -31 -16 -6 0 -16 -11 -21 -24 -11
-29 -49 -44 -61 -25 -4 8 -4 18 1 23 16 16 11 26 -13 26 -13 0 -34 13 -49 30
-17 20 -32 28 -43 24 -19 -8 -67 15 -59 28 3 4 14 8 25 8 10 0 19 5 19 10 0 6
25 10 55 10 30 0 55 -4 55 -9z m-30 -111 c0 -5 -4 -10 -9 -10 -6 0 -13 5 -16
10 -3 6 1 10 9 10 9 0 16 -4 16 -10z m-815 -161 c4 -12 2 -26 -4 -32 -6 -6
-11 -23 -11 -38 0 -43 -10 -59 -36 -59 -15 0 -24 -6 -24 -15 0 -8 -4 -15 -10
-15 -5 0 -10 11 -10 24 0 13 -7 40 -15 59 -19 47 -19 50 6 44 14 -4 28 3 46
24 31 34 49 37 58 8z m-2105 -34 c-7 -8 -16 -15 -21 -15 -5 0 -6 7 -3 15 4 8
13 15 21 15 13 0 13 -3 3 -15z m2263 -122 c-13 -2 -33 -2 -45 0 -13 2 -3 4 22
4 25 0 35 -2 23 -4z m-185 -28 c-6 -14 -13 -24 -14 -22 -6 6 9 47 17 47 5 0 3
-11 -3 -25z m192 5 c0 -5 -11 -10 -25 -10 -14 0 -25 5 -25 10 0 6 11 10 25 10
14 0 25 -4 25 -10z m-120 -80 c0 -5 -5 -10 -11 -10 -5 0 -7 5 -4 10 3 6 8 10
11 10 2 0 4 -4 4 -10z m194 -192 c-3 -4 -11 -5 -19 -1 -16 5 -20 25 -8 36 7 8
33 -25 27 -35z m46 -13 c11 -13 8 -15 -14 -15 -25 0 -33 10 -19 23 10 11 19 8
33 -8z m2270 -69 c0 -75 -35 -94 -42 -23 -6 50 -3 57 23 57 15 0 19 -7 19 -34z
m16 -109 c0 -14 -7 -24 -15 -23 -22 2 -24 -21 -2 -27 18 -4 19 -8 8 -31 -8
-17 -20 -26 -36 -26 -24 0 -24 0 -5 15 10 8 15 15 9 14 -20 -3 -35 1 -35 9 0
7 70 92 76 92 1 0 1 -11 0 -23z m-4206 -73 c0 -19 5 -55 11 -80 10 -37 9 -51
-4 -77 -26 -54 -56 -140 -63 -179 -5 -30 -11 -38 -28 -38 -11 0 -30 -12 -40
-27 -17 -23 -18 -30 -7 -57 7 -17 15 -41 18 -53 3 -13 9 -23 12 -23 9 0 -6
-99 -25 -164 -8 -26 -14 -59 -14 -71 0 -13 -5 -47 -12 -75 -10 -42 -17 -54
-37 -61 -18 -6 -34 -26 -51 -63 -13 -30 -29 -52 -34 -49 -5 3 -6 0 -4 -8 9
-28 -64 -149 -90 -149 -5 0 -22 -29 -38 -65 -16 -35 -37 -67 -46 -70 -10 -4
-18 -14 -18 -23 0 -10 -9 -23 -20 -30 -11 -7 -20 -21 -20 -31 0 -14 -10 -20
-39 -25 -27 -4 -42 -12 -46 -25 -3 -11 -13 -25 -21 -32 -13 -10 -20 -7 -44 19
-16 18 -36 32 -45 32 -24 0 -12 -24 13 -28 46 -7 19 -21 -53 -27 -41 -4 -72
-11 -70 -15 3 -5 1 -11 -5 -15 -5 -3 -10 -1 -10 4 0 6 -18 11 -40 11 -34 0
-40 -3 -40 -21 0 -19 -4 -21 -40 -16 -22 3 -40 1 -40 -4 0 -5 -18 -9 -40 -9
l-40 0 0 40 0 40 -40 0 -40 0 0 53 c0 52 -1 53 -36 66 -33 12 -37 11 -50 -8
-20 -28 -46 -27 -71 3 -25 28 -20 66 7 66 30 0 50 28 50 71 0 28 -4 39 -15 39
-9 0 -15 -9 -15 -24 0 -21 -5 -24 -35 -24 -19 0 -35 1 -35 2 0 25 -25 123 -32
127 -13 8 -1 79 12 79 6 0 10 18 10 40 0 30 -4 40 -16 40 -9 0 -29 11 -46 25
-16 14 -36 25 -43 25 -10 0 -13 15 -12 59 1 39 6 57 14 54 6 -2 14 9 18 26 4
18 13 31 22 31 8 0 21 6 28 14 12 12 9 18 -25 40 -47 31 -50 31 -50 7 0 -17
-3 -18 -24 -8 -26 12 -41 43 -26 52 5 3 13 -2 18 -11 5 -9 14 -14 21 -10 13 9
14 36 1 56 -8 13 -11 12 -24 -5 -15 -19 -15 -19 -16 13 0 22 5 32 15 32 8 0
15 7 15 15 0 8 4 15 10 15 5 0 17 14 26 31 15 29 14 32 -5 50 -11 10 -28 19
-39 19 -10 0 -27 7 -38 15 -19 14 -18 14 3 15 17 0 24 9 32 37 6 20 9 38 7 40
-2 2 -19 4 -39 5 -31 1 -36 5 -39 27 -2 20 -9 27 -30 29 -20 2 -28 9 -28 23 0
10 7 19 15 19 8 0 15 9 15 20 0 13 -7 20 -19 20 -21 0 -39 37 -24 50 4 4 28
11 51 15 42 7 44 6 41 -16 -4 -27 -1 -29 46 -29 27 0 35 4 35 18 0 25 10 34
25 22 7 -6 26 -2 54 12 27 13 38 24 31 28 -7 4 -10 16 -8 26 5 27 67 24 107
-5 18 -13 31 -17 31 -11 0 7 6 10 14 7 7 -3 24 2 36 10 16 11 45 16 91 16 38
-1 72 3 75 8 3 5 16 6 30 3 18 -5 24 -2 24 10 0 10 8 16 22 16 17 0 19 -3 10
-12 -16 -16 -15 -28 3 -28 9 0 15 -9 15 -24 0 -13 6 -29 14 -35 17 -14 67 -4
65 13 -7 57 12 70 50 37 13 -11 27 -21 32 -23 17 -6 -2 -36 -26 -42 -14 -4
-28 -18 -35 -38 -7 -18 -14 -27 -17 -20 -7 17 -23 15 -23 -3 0 -30 22 -52 47
-47 13 3 36 -1 49 -9 20 -10 36 -11 83 -1 31 7 68 12 82 12 13 0 35 8 49 17
18 13 44 17 107 16 46 -1 83 3 83 8 0 5 6 9 14 9 8 0 16 4 18 10 2 5 15 11 31
12 25 2 40 18 17 18 -5 0 -10 10 -10 21 0 17 4 20 22 16 31 -9 68 2 68 19 0 8
14 17 30 21 17 3 30 11 30 19 0 7 10 14 23 16 14 2 21 9 19 20 -2 12 6 18 25
20 45 6 63 -8 63 -48z m-970 38 c0 -4 -10 -9 -22 -9 -18 -2 -20 0 -8 7 18 12
30 13 30 2z m1046 -92 c8 0 14 -4 14 -10 0 -5 -11 -10 -24 -10 -14 0 -28 5
-31 10 -3 6 -1 10 4 10 6 0 12 19 13 43 l1 42 4 -42 c3 -29 9 -43 19 -43z
m4081 -5 c0 -8 -4 -15 -8 -15 -4 0 -15 -3 -25 -7 -12 -4 -15 -3 -10 5 4 7 1
12 -6 13 -7 1 -2 5 12 9 36 12 37 11 37 -5z m-3495 -20 c-2 -14 -7 -25 -11
-25 -4 0 -8 11 -9 25 -1 15 3 25 12 25 9 0 12 -8 8 -25z m3495 -21 c-3 -3 -12
-4 -19 -1 -8 3 -5 6 6 6 11 1 17 -2 13 -5z m-85 -134 c4 -13 5 -35 2 -47 -5
-20 -9 -22 -22 -11 -13 11 -14 11 -7 -2 6 -12 5 -12 -5 -3 -8 7 -10 24 -5 52
7 44 26 50 37 11z m-67 -280 c3 -5 1 -10 -4 -10 -6 0 -11 5 -11 10 0 6 2 10 4
10 3 0 8 -4 11 -10z m-28 -26 c-3 -3 -12 -4 -19 -1 -8 3 -5 6 6 6 11 1 17 -2
13 -5z m4 -99 c4 -30 -4 -120 -11 -123 -4 -1 -5 -14 -2 -27 2 -14 1 -33 -3
-42 -4 -10 -9 -38 -12 -63 -6 -61 -13 -140 -14 -167 -1 -15 -7 -23 -19 -23
-39 0 -32 -40 18 -103 12 -16 22 -43 22 -60 0 -20 3 -27 8 -20 10 15 16 -130
7 -158 -4 -10 -15 -19 -26 -19 -13 0 -19 -7 -19 -21 0 -16 5 -20 20 -16 11 3
20 1 20 -4 0 -5 -4 -9 -8 -9 -5 0 -16 -18 -26 -40 -10 -22 -23 -40 -29 -40 -7
0 -17 -10 -22 -22 -7 -15 -21 -24 -40 -26 -16 -2 -33 -8 -36 -14 -10 -16 -82
-28 -96 -16 -7 6 -10 14 -8 19 8 13 -30 29 -69 29 -30 0 -36 4 -46 34 -7 21
-8 42 -2 53 5 10 16 33 25 51 9 19 17 42 17 52 0 10 5 22 10 25 6 3 10 17 10
31 0 13 4 24 9 24 5 0 12 12 15 28 18 74 26 101 40 142 16 44 31 81 46 110 10
20 42 26 34 7 -3 -8 -1 -18 5 -22 7 -4 8 0 4 11 -5 13 -2 15 15 9 13 -4 22 -2
22 4 0 6 -6 11 -14 11 -8 0 -18 9 -21 20 -4 11 -11 17 -17 14 -20 -13 10 31
51 73 23 23 41 46 41 51 0 5 9 19 20 32 16 19 20 37 20 96 0 89 11 123 40 121
11 -1 21 -6 21 -12z m-2708 -387 c6 -20 -6 -37 -25 -38 -10 0 -10 44 -1 53 12
12 21 7 26 -15z m304 -463 c9 -9 12 -22 8 -33 -5 -11 -9 -13 -12 -5 -2 7 -20
15 -39 19 -35 6 -44 18 -21 27 24 10 49 7 64 -8z m-317 -49 c0 -16 -2 -18 -9
-7 -7 11 -11 9 -20 -8 -7 -11 -18 -21 -26 -21 -7 0 -15 -6 -18 -12 -7 -19 -42
4 -43 28 -1 34 17 45 68 43 41 -2 48 -5 48 -23z m-2225 -26 c3 -5 -1 -10 -9
-10 -9 0 -16 5 -16 10 0 6 4 10 9 10 6 0 13 -4 16 -10z m2597 -22 c-6 -6 -15
-9 -18 -5 -4 3 -4 14 0 23 5 13 9 15 18 6 9 -9 9 -15 0 -24z m-2647 1 c4 -6
13 -8 19 -6 7 3 19 1 27 -3 11 -7 10 -13 -6 -30 -16 -18 -20 -19 -27 -5 -12
20 -45 19 -57 -2 -9 -16 -10 -15 -11 6 0 34 41 64 55 40z m2365 -41 c0 -19 -5
-27 -17 -27 -10 1 -28 -2 -40 -6 -15 -5 -24 -2 -32 13 -12 22 2 38 48 58 30
13 41 3 41 -38z m179 -7 c1 -9 -6 -11 -23 -7 -17 4 -26 1 -30 -11 -6 -14 -8
-14 -21 3 -20 27 -18 34 10 34 14 0 30 9 37 20 13 20 13 20 20 -2 3 -13 6 -29
7 -37z m102 -6 c15 -14 18 -14 32 -1 18 19 27 11 27 -26 0 -28 -13 -37 -25
-18 -10 17 -37 11 -72 -16 -19 -14 -37 -23 -41 -19 -3 3 0 10 7 14 9 6 11 18
6 39 -5 26 -3 31 17 35 13 2 25 5 27 6 3 0 12 -6 22 -14z m-141 -114 c0 -10 9
-21 20 -24 28 -7 26 -37 -2 -37 -19 0 -20 -2 -8 -10 13 -9 13 -11 0 -20 -23
-15 -40 -12 -47 8 -4 9 -16 24 -26 32 -19 16 -19 17 4 43 28 31 59 36 59 8z
m-109 -67 c-33 -62 -23 -98 17 -58 15 15 16 15 23 -2 3 -11 3 -21 -1 -24 -3
-3 -9 -12 -12 -20 -5 -13 4 -16 47 -17 38 -1 55 3 59 13 7 19 26 18 26 -1 0
-8 5 -15 10 -15 6 0 10 -6 10 -14 0 -8 8 -14 18 -14 9 1 47 -2 85 -6 58 -7 67
-5 67 8 0 14 7 16 48 16 4 0 7 -8 7 -18 0 -10 16 -24 38 -35 21 -9 43 -29 49
-42 6 -14 15 -25 20 -25 5 0 6 -9 3 -20 -6 -18 -4 -19 22 -9 15 6 35 17 44 25
15 13 17 12 23 -8 9 -36 7 -48 -8 -48 -8 0 -30 -16 -49 -35 -28 -28 -41 -34
-63 -30 -16 3 -56 7 -89 10 -33 3 -82 10 -110 16 -93 20 -312 23 -399 5 -43
-9 -87 -14 -98 -10 -14 4 -21 0 -25 -16 -4 -17 -10 -20 -27 -15 -38 13 -100
17 -125 8 -22 -9 -62 5 -120 42 -8 5 -39 7 -68 6 -60 -3 -116 7 -108 18 4 7
-45 1 -80 -9 -15 -5 -65 11 -65 20 0 5 -16 14 -35 21 -34 13 -53 37 -37 48 5
3 11 14 15 24 7 19 86 57 118 57 10 0 19 4 19 9 0 9 55 24 96 27 33 2 42 12
56 55 15 52 33 59 64 25 30 -31 41 -33 49 -6 9 29 28 25 23 -5 -4 -19 -1 -25
13 -25 22 0 23 4 7 30 -7 10 -9 22 -5 26 9 9 66 -55 67 -75 0 -10 8 -12 30 -7
22 4 30 2 30 -9 0 -8 6 -15 13 -15 6 0 25 -7 41 -15 23 -12 31 -13 37 -4 4 7
15 14 24 15 32 5 42 13 47 37 4 20 1 23 -14 19 -19 -5 -22 5 -12 32 8 20 32
21 53 2 20 -18 93 -25 98 -9 2 6 -1 14 -6 18 -17 10 -13 54 7 80 16 23 18 23
35 6 18 -18 18 -19 -2 -57z m209 37 c0 -5 -7 -14 -15 -21 -12 -10 -15 -10 -15
2 0 8 3 18 7 21 9 10 23 9 23 -2z m360 -68 c0 -23 -23 -64 -34 -60 -6 2 -11 9
-10 15 1 7 2 28 3 47 1 33 2 34 21 23 11 -7 20 -18 20 -25z m-285 -3 c9 -14
-6 -40 -19 -33 -6 3 -2 -3 8 -15 22 -25 18 -38 -7 -19 -8 6 -19 29 -22 49 -6
34 -5 36 14 31 12 -3 24 -9 26 -13z m65 5 c0 -8 -4 -15 -10 -15 -5 0 -10 7
-10 15 0 8 5 15 10 15 6 0 10 -7 10 -15z m-3730 -24 c0 -6 -4 -13 -10 -16 -5
-3 -10 1 -10 9 0 9 5 16 10 16 6 0 10 -4 10 -9z m3805 -21 c-3 -5 -10 -10 -16
-10 -5 0 -9 5 -9 10 0 6 7 10 16 10 8 0 12 -4 9 -10z m371 -76 c-7 -19 -19
-18 -46 6 -22 19 -22 20 -3 20 11 0 27 7 34 17 13 15 14 14 17 -6 2 -12 1 -29
-2 -37z m-4126 29 c-1 -17 -29 -45 -39 -38 -15 9 -14 32 2 38 19 8 37 8 37 0z
m-85 -24 c10 -15 -1 -23 -20 -15 -9 3 -13 10 -10 16 8 13 22 13 30 -1z m5152
-351 c-3 -8 -6 -5 -6 6 -1 11 2 17 5 13 3 -3 4 -12 1 -19z m-20 -60 c-3 -8 -6
-5 -6 6 -1 11 2 17 5 13 3 -3 4 -12 1 -19z m-880 -59 c24 -10 49 -19 57 -19
16 0 32 -53 21 -70 -3 -5 3 -10 14 -10 18 0 19 -2 5 -27 -7 -16 -14 -33 -14
-39 0 -7 -7 -11 -16 -10 -11 1 -22 -14 -33 -44 -20 -56 -30 -72 -41 -65 -5 3
-19 -8 -31 -25 -13 -16 -28 -30 -33 -30 -11 0 -43 -24 -98 -71 -16 -15 -47
-35 -69 -45 -27 -13 -39 -26 -39 -40 0 -22 -23 -47 -51 -57 -9 -3 -19 -21 -23
-40 -6 -32 -10 -35 -51 -41 -48 -8 -87 9 -83 34 3 15 7 16 53 19 17 1 25 7 25
19 0 35 30 80 60 91 20 6 30 7 30 0 0 -5 12 2 27 17 18 18 23 29 15 32 -25 8
0 142 31 163 5 4 12 49 15 100 4 71 9 100 23 118 11 13 19 29 19 35 0 41 103
43 187 5z m-1079 -70 c2 -5 12 -9 22 -9 10 0 22 -5 26 -11 4 -6 38 -10 88 -8
44 1 100 -3 123 -10 23 -6 47 -10 54 -9 6 2 14 -3 17 -11 3 -10 -2 -12 -22 -7
-29 7 -69 -24 -61 -46 5 -13 -42 -40 -74 -42 -9 -1 -26 -7 -38 -14 -13 -7 -23
-9 -23 -4 0 6 -24 9 -54 8 -62 -1 -86 14 -86 55 0 36 -12 43 -87 45 -60 2 -64
1 -80 -27 -13 -22 -25 -29 -50 -29 -31 0 -32 1 -30 42 2 42 3 43 46 51 29 6
47 5 54 -2 15 -15 38 -14 35 1 -2 7 7 17 20 23 12 5 22 14 22 19 0 11 94 -3
98 -15z m1629 -131 c-3 -8 -6 -5 -6 6 -1 11 2 17 5 13 3 -3 4 -12 1 -19z m80
16 c-3 -3 -12 -4 -19 -1 -8 3 -5 6 6 6 11 1 17 -2 13 -5z m-102 -44 c-3 -5
-13 -10 -21 -10 -8 0 -14 5 -14 10 0 6 9 10 21 10 11 0 17 -4 14 -10z m-851
-126 c-5 -20 -10 -23 -33 -18 -46 11 -52 22 -26 48 13 13 30 26 37 28 17 6 30
-27 22 -58z m493 20 c-10 -11 -78 -13 -71 -3 3 5 21 9 41 9 20 0 33 -3 30 -6z
m77 -9 c-4 -8 -7 -15 -9 -15 -2 0 -5 7 -9 15 -3 9 0 15 9 15 9 0 12 -6 9 -15z
m-90 -91 c3 -8 2 -12 -4 -9 -6 3 -10 10 -10 16 0 14 7 11 14 -7z m-597 -51 c3
-8 -5 -13 -21 -13 -21 0 -26 -5 -26 -24 0 -35 -10 -56 -26 -56 -8 0 -14 -4
-14 -9 0 -20 13 -41 25 -41 21 0 25 -28 5 -33 -13 -3 -23 -20 -31 -51 -6 -26
-15 -48 -19 -51 -4 -3 -22 0 -39 6 -26 9 -35 8 -49 -4 -18 -17 -55 -14 -79 6
-24 18 -14 -52 13 -99 28 -47 53 -56 88 -29 13 10 32 13 58 8 34 -5 40 -3 45
16 6 23 18 27 27 9 3 -7 4 -1 2 15 -3 25 -1 27 31 27 36 0 93 35 93 57 0 12 6
15 26 12 4 0 15 14 25 31 30 49 53 37 59 -30 5 -51 6 -53 18 -32 7 12 10 27 6
33 -3 6 2 19 11 29 9 10 15 27 14 37 -5 25 9 43 31 43 13 0 17 5 14 15 -4 8 1
17 9 21 9 3 13 12 11 19 -3 7 -1 16 5 20 6 3 11 -1 11 -9 0 -9 7 -16 15 -16 8
0 15 5 15 11 0 6 12 9 27 7 37 -4 42 -44 7 -60 -21 -10 -27 -9 -34 2 -7 11
-12 12 -20 4 -16 -16 -1 -47 19 -39 30 12 36 10 39 -11 4 -24 -40 -74 -64 -74
-8 0 -20 -13 -25 -30 -10 -27 -15 -30 -56 -30 -27 0 -51 -6 -60 -16 -14 -14
-14 -17 6 -35 34 -32 26 -55 -16 -50 -7 1 -13 -5 -13 -13 0 -12 -7 -14 -29
-10 -24 5 -32 1 -47 -22 -10 -16 -24 -33 -31 -37 -8 -5 -10 -19 -6 -37 3 -18
-1 -43 -12 -66 -9 -19 -14 -38 -11 -42 10 -9 -65 -32 -105 -32 -23 0 -39 -6
-43 -15 -3 -8 -13 -15 -23 -15 -9 0 -28 -12 -41 -27 -15 -19 -25 -24 -28 -15
-3 6 -12 12 -20 12 -8 0 -14 -6 -15 -12 0 -10 -2 -10 -6 0 -7 17 -23 15 -23
-3 0 -8 -4 -15 -9 -15 -6 0 -5 -15 1 -36 5 -20 7 -38 4 -42 -3 -3 -6 2 -6 11
0 15 -3 14 -20 -3 -11 -11 -27 -20 -36 -20 -13 0 -16 7 -12 38 4 23 0 48 -8
63 -10 18 -13 20 -14 7 0 -17 -7 -13 -65 41 -6 6 -19 -9 -35 -42 -27 -55 -50
-72 -50 -37 0 27 -28 70 -46 70 -8 0 -14 9 -14 19 0 28 -19 36 -38 18 -14 -15
-13 -17 12 -28 15 -7 25 -18 22 -26 -3 -7 2 -16 11 -21 23 -14 11 -34 -22 -38
-16 -2 -35 -10 -41 -19 -18 -24 -43 -7 -51 33 -4 21 -6 41 -5 45 2 5 -2 34 -8
64 -15 81 -5 93 75 93 l65 0 0 -30 c0 -37 13 -38 47 -4 24 24 24 26 7 39 -11
8 -24 15 -31 15 -6 0 -13 10 -15 23 -2 17 -9 22 -31 22 -32 -1 -46 31 -31 74
9 25 28 33 109 48 17 3 35 11 41 19 6 8 46 19 88 26 l77 12 -2 48 c-2 44 1 52
30 78 35 32 71 40 71 15 0 -8 4 -15 9 -15 17 0 27 26 25 67 -2 46 20 76 69 87
26 6 39 36 16 36 -8 0 -8 4 -1 13 14 16 84 16 89 0z m528 -3 c3 -5 1 -10 -4
-10 -6 0 -11 5 -11 10 0 6 2 10 4 10 3 0 8 -4 11 -10z m-75 -86 c0 -8 -4 -14
-10 -14 -5 0 -10 9 -10 21 0 11 5 17 10 14 6 -3 10 -13 10 -21z m-1003 -170
c-3 -3 -12 -4 -19 -1 -8 3 -5 6 6 6 11 1 17 -2 13 -5z m961 -66 c-6 -18 -28
-21 -28 -4 0 9 7 16 16 16 9 0 14 -5 12 -12z m-1162 -284 c-3 -9 -9 -32 -12
-52 -6 -41 -38 -87 -53 -78 -5 4 -13 1 -17 -6 -10 -16 -24 24 -17 50 3 13 15
22 32 24 14 2 25 8 24 15 -5 23 16 63 33 63 11 0 14 -5 10 -16z m-411 -83 c-6
-21 -25 -29 -25 -11 0 6 5 10 10 10 6 0 10 8 10 17 0 9 3 14 6 10 3 -3 3 -15
-1 -26z m121 -38 c-11 -11 -19 6 -11 24 8 17 8 17 12 0 3 -10 2 -21 -1 -24z
m324 -139 c0 -8 -5 -12 -10 -9 -6 4 -8 11 -5 16 9 14 15 11 15 -7z m1510 -334
c0 -5 -5 -10 -11 -10 -5 0 -7 5 -4 10 3 6 8 10 11 10 2 0 4 -4 4 -10z m-1510
-570 c0 -5 -4 -10 -10 -10 -5 0 -10 5 -10 10 0 6 5 10 10 10 6 0 10 -4 10 -10z
m1125 -50 c3 -5 -3 -10 -14 -10 -12 0 -21 5 -21 10 0 6 6 10 14 10 8 0 18 -4
21 -10z m-42 -117 c-7 -2 -19 -2 -25 0 -7 3 -2 5 12 5 14 0 19 -2 13 -5z
m1078 -3039 c8 -8 21 -14 27 -14 7 0 12 -4 12 -9 0 -5 -12 -6 -27 -2 -16 5
-27 13 -25 20 3 15 -25 14 -31 -1 -4 -8 -6 -7 -6 4 -1 9 -7 18 -13 21 -7 2 1
2 17 -1 17 -2 37 -10 46 -18z m38 -50 c2 -2 -12 -4 -32 -4 -20 0 -39 5 -42 11
-5 7 5 8 32 3 21 -4 40 -8 42 -10z"/>
<path d="M5185 11090 c-4 -6 3 -10 14 -10 25 0 27 6 6 13 -8 4 -17 2 -20 -3z"/>
<path d="M4716 10695 c4 -8 10 -12 15 -9 14 8 10 24 -6 24 -9 0 -12 -6 -9 -15z"/>
<path d="M5101 10663 c7 -10 15 -20 16 -22 2 -2 3 3 3 11 0 9 -7 19 -16 22
-15 6 -15 4 -3 -11z"/>
<path d="M6785 10450 c-3 -5 1 -10 10 -10 9 0 13 5 10 10 -3 6 -8 10 -10 10
-2 0 -7 -4 -10 -10z"/>
<path d="M4800 10403 c0 -13 5 -23 10 -23 13 0 13 11 0 30 -8 12 -10 11 -10
-7z"/>
<path d="M4925 9710 c-3 -5 1 -10 9 -10 9 0 16 5 16 10 0 6 -4 10 -9 10 -6 0
-13 -4 -16 -10z"/>
<path d="M7717 9370 c-17 -24 -17 -25 0 -29 10 -2 23 -11 30 -20 11 -15 12
-15 13 2 0 9 -4 17 -9 17 -5 0 -11 12 -13 28 l-3 27 -18 -25z"/>
<path d="M7820 9251 c0 -5 7 -14 15 -21 16 -14 18 -10 9 14 -6 17 -24 22 -24
7z"/>
<path d="M7585 9199 c-9 -13 13 -30 35 -26 8 1 15 9 15 17 0 18 -40 26 -50 9z"/>
<path d="M7361 8924 c0 -11 3 -14 6 -6 3 7 2 16 -1 19 -3 4 -6 -2 -5 -13z"/>
<path d="M7645 8860 c-3 -5 -1 -10 4 -10 6 0 11 5 11 10 0 6 -2 10 -4 10 -3 0
-8 -4 -11 -10z"/>
<path d="M7040 8780 c0 -5 18 -10 40 -10 22 0 40 5 40 10 0 6 -18 10 -40 10
-22 0 -40 -4 -40 -10z"/>
<path d="M5590 8260 c-4 -92 4 -120 35 -120 14 0 25 -6 25 -12 0 -18 57 -49
75 -42 8 4 16 1 16 -5 3 -26 4 -30 11 -37 16 -15 20 30 6 60 -30 59 -40 95
-33 115 4 15 2 21 -9 21 -8 0 -21 6 -28 13 -7 8 -30 17 -50 21 -20 4 -39 12
-41 19 -3 7 -6 -8 -7 -33z"/>
<path d="M7460 7350 c0 -5 5 -10 10 -10 6 0 10 5 10 10 0 6 -4 10 -10 10 -5 0
-10 -4 -10 -10z"/>
<path d="M5940 7036 c0 -10 -9 -16 -21 -16 -14 0 -19 -5 -17 -17 4 -23 41 -28
58 -8 8 10 9 15 2 15 -6 0 -9 6 -6 14 3 8 1 17 -5 21 -6 3 -11 -1 -11 -9z"/>
<path d="M7267 6693 c-11 -10 -8 -43 3 -43 6 0 10 11 10 25 0 26 -2 29 -13 18z"/>
<path d="M6530 6630 c0 -5 5 -10 11 -10 5 0 7 5 4 10 -3 6 -8 10 -11 10 -2 0
-4 -4 -4 -10z"/>
<path d="M7080 6470 c0 -5 5 -10 10 -10 6 0 10 5 10 10 0 6 -4 10 -10 10 -5 0
-10 -4 -10 -10z"/>
<path d="M6582 6091 c2 -7 7 -12 11 -12 12 1 9 15 -3 20 -7 2 -11 -2 -8 -8z"/>
<path d="M3510 11140 c0 -37 2 -40 19 -31 38 21 42 71 6 71 -23 0 -25 -4 -25
-40z"/>
<path d="M3637 10785 c-4 -8 -2 -17 3 -20 6 -4 10 3 10 14 0 25 -6 27 -13 6z"/>
<path d="M3045 8633 c-5 -5 -21 -20 -33 -35 -20 -22 -22 -30 -13 -47 14 -26
62 -28 84 -3 8 9 17 33 19 52 3 31 0 35 -22 38 -14 1 -29 -1 -35 -5z"/>
<path d="M2562 8120 c0 -14 2 -19 5 -12 2 6 2 18 0 25 -3 6 -5 1 -5 -13z"/>
<path d="M2706 8043 c-4 -9 -1 -20 6 -25 21 -13 28 -9 28 17 0 28 -24 34 -34
8z"/>
<path d="M2670 7806 c0 -22 17 -28 24 -10 9 22 8 24 -9 24 -8 0 -15 -6 -15
-14z"/>
<path d="M2707 7520 c-3 -11 -1 -20 4 -20 5 0 9 9 9 20 0 11 -2 20 -4 20 -2 0
-6 -9 -9 -20z"/>
<path d="M2785 7381 c-3 -5 -1 -12 5 -16 5 -3 10 1 10 9 0 18 -6 21 -15 7z"/>
<path d="M3330 7270 c0 -5 5 -10 10 -10 6 0 10 5 10 10 0 6 -4 10 -10 10 -5 0
-10 -4 -10 -10z"/>
<path d="M4890 6770 c0 -5 5 -10 10 -10 6 0 10 5 10 10 0 6 -4 10 -10 10 -5 0
-10 -4 -10 -10z"/>
<path d="M5760 6656 c0 -9 5 -16 10 -16 6 0 10 4 10 9 0 6 -4 13 -10 16 -5 3
-10 -1 -10 -9z"/>
<path d="M6001 5914 c0 -11 3 -14 6 -6 3 7 2 16 -1 19 -3 4 -6 -2 -5 -13z"/>
<path d="M5248 6063 c7 -3 16 -2 19 1 4 3 -2 6 -13 5 -11 0 -14 -3 -6 -6z"/>
<path d="M5660 5620 c0 -37 2 -40 28 -40 24 1 25 2 10 14 -10 7 -18 25 -18 40
0 14 -4 26 -10 26 -5 0 -10 -18 -10 -40z"/>
<path d="M6160 5565 c0 -8 2 -15 4 -15 2 0 6 7 10 15 3 8 1 15 -4 15 -6 0 -10
-7 -10 -15z"/>
<path d="M5340 5155 c0 -27 9 -32 28 -13 18 18 14 38 -8 38 -15 0 -20 -7 -20
-25z"/>
<path d="M5121 5134 c0 -11 3 -14 6 -6 3 7 2 16 -1 19 -3 4 -6 -2 -5 -13z"/>
<path d="M7100 710 c0 -5 5 -10 10 -10 6 0 10 5 10 10 0 6 -4 10 -10 10 -5 0
-10 -4 -10 -10z"/>
<path d="M7240 660 c0 -5 5 -10 10 -10 6 0 10 5 10 10 0 6 -4 10 -10 10 -5 0
-10 -4 -10 -10z"/>
<path d="M7170 609 c0 -5 -4 -7 -10 -4 -13 8 -13 -15 0 -35 8 -12 10 -11 10 6
0 11 5 25 12 32 9 9 9 12 0 12 -7 0 -12 -5 -12 -11z"/>
<path d="M7212 60 c0 -14 2 -19 5 -12 2 6 2 18 0 25 -3 6 -5 1 -5 -13z"/>
<path d="M7201 18 c-1 -10 6 -18 14 -18 8 0 15 5 15 11 0 5 -4 8 -9 5 -5 -4
-12 0 -14 6 -3 8 -6 6 -6 -4z"/>
</g>
</svg>
